<?xml version="1.0" encoding="utf-8"?>
<svg version="1.1" id="Layer_1" x="0px" y="0px" width="100%" viewBox="0 0 1024 1024" enable-background="new 0 0 1024 1024" xmlns="http://www.w3.org/2000/svg" xmlns:bx="https://boxy-svg.com">
  <defs>
    <bx:guide x="515.587" y="135.284" angle="0"/>
    <bx:guide x="506.967" y="126.848" angle="90"/>
    <bx:guide x="131.762" y="518.621" angle="0"/>
    <bx:guide x="124.747" y="513.33" angle="90"/>
  </defs>
  <path fill="#000000" opacity="1.000000" d="M 594.369 853.271 C 589.918 856.341 585.435 859.371 581.918 863.567 C 586.245 860.011 591.328 857.385 595.627 852.775 C 599.7 850.586 603.528 848.04 607.655 844.721 C 618.254 839 628.395 832.301 640.456 829.394 C 633.9 837.112 626.527 844.008 620.357 851.959 C 635.441 839.782 647.855 824.152 666.921 817.342 C 665.159 821.878 662.807 825.865 660.755 830 C 657.868 835.819 653.98 840.537 648.167 843.722 C 641.231 847.522 635.398 852.781 630.284 858.766 C 625.408 864.474 620.779 870.393 616.041 876.22 C 616.368 876.518 616.695 876.816 617.022 877.114 C 622.612 874.435 626.836 869.956 630.983 865.51 C 637.924 858.066 644.997 850.799 653.118 844.609 C 658.847 840.241 663.901 835.194 667.957 829.195 C 674.863 818.984 683.753 810.78 693.72 803.642 C 695.819 802.138 698.293 800.948 699.469 798.292 C 699.029 798.272 698.654 798.135 698.416 798.26 C 675.855 810.103 651.802 818.839 629.516 831.222 C 621.844 835.486 613.698 839.071 606.354 845.214 C 602.085 847.114 598.273 849.675 594.369 853.271 Z M 805.74 266.912 C 808.151 266.52 810.599 265.839 810.381 262.836 C 810.185 260.143 807.639 259.951 805.554 259.398 C 802.198 258.509 798.886 258.131 795.336 259.625 C 798.517 260.719 801.459 261.722 804.396 262.743 C 807.31 263.756 806.82 265.307 804.241 267.043 C 800.708 267.027 797.692 268.291 794.632 270.61 C 795.901 271.342 796.744 271.829 797.969 272.535 C 797.982 267.483 802.991 269.344 805.74 266.912 Z M 675.533 166.08 C 582.872 122.419 487.966 117.284 391.104 150.135 C 340.506 167.296 296.069 194.802 256.857 231.866 C 259.867 233.343 262.022 233.498 264.175 233.591 C 273.358 233.99 281.711 237.1 289.767 241.27 C 293.055 242.972 295.598 247.282 300.338 244.416 C 300.676 244.211 301.899 244.987 302.381 245.576 C 310.432 255.421 322.101 262.098 327.468 274.313 C 328.465 276.581 329.981 278.628 331.323 280.734 C 334.359 285.498 336.295 285.513 339.106 280.692 C 340.445 278.395 341.486 275.926 342.728 273.57 C 343.186 272.701 344.174 271.155 344.346 271.23 C 349.278 273.387 349.85 267.897 352.515 266.397 C 354.147 267.443 353.66 269.864 356.298 270.394 C 360.017 267.245 363.992 263.781 368.093 260.472 C 369.132 259.633 370.676 257.741 371.873 259.28 C 374.176 262.238 375.938 259.987 377.872 259.207 C 379.458 258.567 380.789 257.14 382.744 257.427 C 383.162 259.912 381.803 261.569 381.237 263.432 C 380.795 264.887 380.113 266.425 381.843 267.42 C 383.246 268.227 384.865 267.987 386.11 267.091 C 387.153 266.341 387.948 265.201 388.731 264.143 C 393.318 257.945 399.193 253.006 404.539 247.539 C 411.22 240.707 420.615 240.472 427.791 235.811 C 429.833 237.022 428.654 239.535 431.031 240.308 C 434.113 237.391 439.809 239.774 442.553 235.108 C 442.809 234.673 444.022 234.244 444.274 234.448 C 448.354 237.76 449.607 233.437 451.751 231.704 C 453.408 230.366 454.23 228.122 456.373 227.285 C 457.873 227.936 456.933 230.39 459.666 230.701 C 464.654 225.519 470.694 221.083 478.031 218.243 C 482.625 216.465 486.874 213.633 491.653 212.126 C 493.371 211.584 496.211 210.6 496.859 211.323 C 500.622 215.524 504.675 212.379 508.503 212.193 C 511.501 212.048 514.433 211.958 517.444 212.209 C 531.228 213.358 543.169 221.311 556.857 222.743 C 557.179 222.777 557.619 222.841 557.782 223.058 C 560.788 227.046 565.049 225.821 568.84 225.39 C 577.944 224.355 587.039 223.458 596.212 223.645 C 599.716 223.716 603.525 222.683 605.378 227.378 C 605.98 228.903 608.308 228.64 609.978 228.617 C 615.475 228.543 620.971 228.549 626.381 229.684 C 628.654 230.161 631.521 229.823 630.827 233.936 C 630.416 236.371 632.905 236.522 634.759 236.594 C 638.02 236.721 641.33 236.548 644.327 238.499 C 643.151 241.326 639.013 240.032 638.273 243.094 C 638.702 244.866 640.287 244.998 641.467 245.047 C 652.122 245.495 659.011 253.267 667.335 258.228 C 667.981 258.613 668.848 259.5 668.786 260.061 C 668.27 264.701 671.926 265.489 674.903 266.707 C 678.749 268.281 682.754 269.46 686.629 270.967 C 691.159 272.729 694.12 271.513 696.351 267.077 C 699.725 260.368 703.415 253.742 710.385 249.957 C 714.47 247.739 717.355 244.49 719.847 240.628 C 723.924 234.307 728.897 228.79 735.902 224.686 C 736.647 228.376 738.554 228.766 741.33 227.166 C 742.761 226.342 744.37 225.816 745.921 225.212 C 756.785 220.977 756.992 219.824 747.949 212.475 C 725.757 194.44 701.828 179.1 675.533 166.08 Z M 249.704 766.132 C 259.03 760.277 269.005 755.615 278.643 750.335 C 280.279 749.438 282.951 749.013 282.759 746.537 C 282.583 744.269 280.776 742.863 278.854 742.386 C 276.959 742.549 277.856 745.215 275.616 744.83 C 269.02 736.442 265.958 726.057 261.638 716.009 C 258.395 718.494 259.766 722.582 256.999 724.638 C 255.223 723.053 255.051 721.031 254.678 719.136 C 252.682 708.991 251.32 698.813 252.511 688.418 C 252.783 686.043 253.66 683.062 251.584 681.258 C 248.788 678.829 248.705 675.802 248.668 672.691 C 248.579 665.061 248.639 657.429 248.639 649.147 C 244.711 651.018 244.173 648.852 243.484 646.147 C 239.957 632.3 240.818 618.462 243.204 604.597 C 243.526 602.726 244.138 600.851 243.088 598.502 C 241.736 600.078 240.711 601.275 238.826 603.474 C 235.792 581.342 238.595 560.858 243.728 540.65 C 240.238 539.566 239.213 543.605 236.179 542.783 C 236.207 540.557 237.108 538.633 237.999 536.705 C 241.219 529.73 246.623 524.523 252.033 519.313 C 253.568 517.835 255.471 516.525 255.218 513.969 C 253.962 501.26 252.701 488.552 251.41 475.517 C 249.519 476.045 247.995 476.471 245.433 477.186 C 249.109 464.328 252.007 452.047 252.728 439.949 C 250.56 438.259 248.721 440.398 247.52 438.992 C 247.186 433.913 255.14 431.068 250.818 424.671 C 254.031 420.069 259.415 416.677 264.924 411.644 C 250.524 410.098 236.297 412.077 227.449 399.508 C 228.359 397.292 230.539 398.912 231.002 396.781 C 223.439 390.813 214.668 386.084 208.28 377.641 C 213.28 376 211.187 373.295 209.677 370.627 C 207.409 366.624 205.437 362.508 204.644 357.986 C 206.678 357.048 208.645 359.795 209.991 357.397 C 211.035 355.539 209.796 353.838 209.129 352.192 C 207.691 348.645 205.88 345.232 204.664 341.616 C 203.389 337.825 201.433 335.615 196.949 337.109 C 199.384 330.473 193.806 327.429 191.977 322.273 C 193.069 319.788 196.921 318.144 197.105 314.499 C 195.21 311.966 192.829 314.907 189.901 312.803 C 192.074 310.995 194.177 309.477 195.993 307.671 C 197.876 305.799 199.5 303.663 201.205 301.616 C 203.209 299.21 203.977 296.804 201.269 294.384 C 200.736 294.627 200.369 294.691 200.16 294.908 C 199.588 295.504 199.018 296.12 198.56 296.804 C 158.858 356.095 136.624 421.368 132.533 492.582 C 130.889 521.197 132.459 549.809 137.534 578.099 C 145.722 623.748 161.265 666.731 184.919 706.688 C 198.714 729.992 214.818 751.584 233.199 771.495 C 236.071 774.606 238.322 775.122 241.523 772.237 C 243.862 770.128 246.561 768.419 249.704 766.132 Z M 843.425 316.159 C 842.201 314.783 842.002 312.264 839.304 312.411 C 837.851 314.017 837.67 315.988 837.361 317.956 C 835.524 329.65 833.117 341.181 828.024 351.999 C 826.946 354.289 824.352 356.721 826.143 359.296 C 828.026 362.003 830.705 358.623 833.07 359.178 C 833.217 359.213 833.335 359.367 833.473 359.466 C 834.002 360.339 833.525 361.089 833.054 361.725 C 824.075 373.849 814.225 385.072 800.894 392.68 C 799.355 393.559 797.195 394.101 797.546 396.475 C 797.865 398.633 799.751 399.23 801.601 399.601 C 804.439 400.169 807.291 400.671 810.376 401.245 C 808.817 403.926 806.34 403.98 804.217 404.717 C 802.985 405.144 800.93 405.457 800.729 406.216 C 799.634 410.342 796.067 410.041 793.182 410.776 C 789.253 411.777 785.289 411.519 781.318 410.572 C 779.615 410.166 777.525 409.672 776.184 411.402 C 774.755 413.245 776.194 414.894 777.06 416.441 C 779.926 421.564 783.715 425.99 787.612 430.347 C 789.106 432.017 791.493 433.046 791.853 435.706 C 788.563 437.632 785.427 433.86 781.68 435.786 C 784.688 446.871 790.961 456.724 795.017 467.396 C 792.865 468.263 791.225 466.129 789.584 467.999 C 790.674 477.256 791.94 486.604 794.198 495.814 C 796.45 504.995 799.532 513.897 802.895 521.978 C 802.062 524.413 800.13 521.862 799.349 523.83 C 805.603 532.4 812.427 540.624 817.487 550.431 C 814.013 550.779 812.226 547.919 808.838 548.249 C 816.106 559.863 824.226 570.06 833.541 580.331 C 826.063 580.557 821.516 574.781 814.387 574.124 C 818.575 585.514 826.3 594.128 831.883 604.481 C 827.514 604.427 825.952 600.173 821.557 600.309 C 824.213 614.353 829.63 627.327 832.991 641.748 C 828.789 639.104 827.599 634.767 823.448 632.541 C 823.448 635.126 823.319 637.233 823.482 639.317 C 823.673 641.766 825.273 644.372 823.759 646.608 C 821.827 649.463 822.49 652.272 822.802 655.232 C 823.742 664.167 825.261 672.999 827.218 681.764 C 827.393 682.544 827.404 683.42 826.619 684.049 C 825.116 684.482 824.435 681.877 822.436 683.088 C 822.519 688.289 824.785 693.43 824.375 699.33 C 819.245 696.443 817.775 691.054 813.227 686.69 C 813.659 698.404 819.159 707.268 823.349 716.631 C 820.245 717.202 818.724 714.678 816.294 715.217 C 815.902 721.891 820.156 725.244 825.114 728.406 C 827.896 730.181 829.276 729.798 831.088 727.141 C 861.856 682.045 881.932 632.602 891.638 578.911 C 894.988 560.38 896.14 541.61 897.856 522.9 C 898.023 521.08 897.311 518.822 899.547 517.682 C 901.074 518.064 901.273 519.335 901.643 520.385 C 904.122 527.411 905.66 535.327 915.813 534.817 C 915.96 534.809 916.115 534.946 916.267 535.014 C 917.722 535.666 918.95 536.113 919.991 536.329 C 906.85 749.196 730.453 917.764 514.777 917.764 C 290.549 917.764 108.777 735.563 108.777 510.806 C 108.777 286.049 290.549 103.848 514.777 103.848 C 724.16 103.848 896.522 262.722 918.427 466.765 C 917.909 466.842 917.366 466.972 916.798 467.158 C 915.88 467.459 914.814 467.504 913.841 467.411 C 903.24 466.4 903.242 466.386 898.552 474.692 C 896.576 473.85 896.296 471.995 895.877 470.264 C 894.19 463.299 893.676 456.141 892.45 449.106 C 884.252 402.055 868.287 357.835 843.425 316.159 Z M 436.489 579.147 C 436.915 575.684 437.218 572.202 437.787 568.763 C 441.008 549.315 449.396 540.586 468.793 536.626 C 486.747 532.96 504.884 533.07 522.977 534.969 C 534.061 536.133 545.055 538.276 554.901 544.081 C 566.55 550.947 574.803 561.297 569.553 578.421 C 567.948 583.656 566.45 588.978 565.563 594.37 C 562.436 613.371 550.757 625.457 534.342 633.862 C 529.453 636.365 524.419 638.603 519.646 641.307 C 514.822 644.039 510.648 647.616 507.88 652.583 C 505.636 656.608 506.209 659.768 510.359 662.263 C 526.362 671.887 542.428 681.383 560.303 687.229 C 570.163 690.453 580.088 692.247 590.686 690.876 C 609.985 688.379 624.472 676.447 629.553 657.736 C 630.859 652.928 631.912 648.022 633.617 643.357 C 637.414 632.972 636.757 629.434 628.51 621.748 C 624.451 617.964 622.602 613.339 621.99 608.019 C 625.443 607.285 625.974 610.581 628.172 611.485 C 628.172 610.769 628.275 610.407 628.155 610.149 C 627.241 608.187 626.51 606.091 625.305 604.322 C 615.21 589.511 611.283 572.147 607.415 555.333 C 603.966 540.34 597.277 528.065 587.704 516.807 C 578.1 505.512 568.153 494.509 558.479 483.272 C 550.983 474.564 544.292 465.148 535.954 457.186 C 521.17 443.068 501.481 444.111 487.922 459.5 C 473.605 475.749 459.238 491.956 444.848 508.141 C 437.567 516.331 431.448 525.215 428.71 535.973 C 422.433 560.636 412.712 583.937 401.223 606.56 C 400.55 607.886 399.346 609.485 400.34 610.753 C 404.675 616.289 400.592 620.204 397.711 624.02 C 394.413 628.39 392.941 632.957 393.266 638.41 C 393.501 642.339 394.26 646.154 393.634 650.278 C 389.858 675.183 408.755 693.311 433.569 690.105 C 454.524 687.397 472.068 678.216 488.458 665.611 C 494.822 660.717 495.933 657.267 490.369 649.237 C 489.063 647.353 487.241 645.793 485.518 644.238 C 478.329 637.752 469.106 634.819 460.864 630.167 C 445.453 621.467 430.055 604.316 436.489 579.147 Z M 575.613 348.227 C 564.589 351.32 554.857 356.525 548.056 366.034 C 544.553 370.932 540.155 372.089 534.548 370.982 C 524.414 368.982 514.241 367.302 503.865 369.328 C 499.792 370.123 495.613 370.457 491.602 371.477 C 486.007 372.9 481.97 371.168 478.581 366.654 C 472.777 358.925 464.819 354.211 455.777 351.184 C 444.915 347.548 433.58 346.956 422.305 346.45 C 406.314 345.731 390.339 346.796 374.441 348.464 C 354.745 350.53 336.67 356.831 322.509 371.355 C 305.783 388.509 294.696 408.168 296.216 433.249 C 296.568 439.056 296.767 444.885 297.417 450.659 C 298.793 462.901 300.765 475.08 305.599 486.502 C 320.178 520.945 372.37 545.06 414.19 516.262 C 438.654 499.416 456.852 477.32 471.398 451.846 C 477.851 440.544 482.357 428.302 488.062 416.642 C 493.036 406.475 501.22 400.022 512.781 399.903 C 523.822 399.79 532.125 405.378 537.378 415.132 C 539.505 419.082 541.364 423.187 543.167 427.299 C 556.972 458.795 576.347 486.086 603.46 507.592 C 623.742 523.679 646.021 532.582 672.159 525.478 C 700.541 517.764 721.342 501.51 729.136 471.825 C 730.647 466.069 731.309 460.077 732.159 454.165 C 734.038 441.102 735.223 427.809 733.218 414.847 C 728.291 382.985 699.398 353.95 667.655 347.415 C 655.862 344.988 643.913 344.468 631.954 343.87 C 613.26 342.934 594.724 344.052 575.613 348.227 Z M 655.306 270.175 C 651.484 268.263 646.897 268.826 643.073 266.707 C 644.585 263.991 648.104 265.732 649.803 262.871 C 644.488 259.467 638.358 260.066 632.827 258.987 C 631.976 257.329 634.939 256.343 632.85 254.52 C 627.719 253.417 622.384 254.568 617.22 255.964 C 615.893 254.772 617.846 253.122 615.872 251.997 C 609.927 251.987 604.827 256.389 597.941 257.746 C 600.539 251.86 604.031 247.975 608.114 244.498 C 609.292 243.494 611.414 242.746 610.625 240.668 C 609.908 238.78 607.841 239.108 606.244 238.985 C 599.893 238.496 593.734 240.176 587.461 241.027 C 586.586 237.097 583.77 236.56 580.594 236.356 C 575.451 236.025 570.288 235.747 565.186 235.057 C 546.563 232.536 528.221 227.243 509.126 229.514 C 508.29 229.613 507.975 229.027 507.554 228.532 C 505.711 226.362 503.639 227.34 502.351 228.797 C 497.131 234.706 488.88 235.908 483.375 241.302 C 483.185 241.488 482.754 241.428 482.588 241.456 C 480.97 241.376 481.633 238.76 479.773 239.138 C 477.509 241.144 477.569 244.853 474.282 246.237 C 473.833 245.753 473.264 245.353 472.981 244.804 C 469.784 238.624 469.861 238.704 464.624 243.136 C 461.914 245.429 460.077 248.844 456.464 250.021 C 454.818 248.035 456.533 245.495 454.875 243.688 C 452.525 243.716 450.842 245.186 449.127 246.413 C 446.572 248.242 444.446 251.177 441.641 252.051 C 434.328 254.329 429.662 259.468 425.368 265.193 C 423.399 267.817 422.65 270.848 423.785 274.198 C 429.127 274.091 428.432 279.423 430.846 281.978 C 433.326 284.603 434.289 288.76 438.824 289.845 C 439.801 284.877 436.814 280.089 439.084 275.442 C 441.419 276.38 440.888 279.546 443.535 280.204 C 444.187 275.554 442.777 270.927 444.401 265.788 C 449.31 273.76 451.762 282.433 459.187 288.748 C 461.763 282.907 459.968 276.746 462.89 272.59 C 464.611 271.95 464.401 274.244 465.763 273.27 C 466.459 270.164 464.569 266.741 467.449 263.079 C 471.477 272.715 475.688 281.517 482.075 290.105 C 485.137 283.922 484.881 278.279 486.444 273.093 C 488.01 267.897 488.891 262.475 492.352 258.032 C 494.145 259.229 492.408 261.611 494.575 262.614 C 497.423 260.589 496.185 255.959 499.748 253.809 C 501.16 259.553 500.146 265.04 501.057 270.435 C 503.263 283.498 502.99 283.544 505.601 286.233 C 506.383 281.093 506.883 276.136 507.944 271.302 C 509.01 266.442 510.266 261.559 513.232 257.385 C 515.985 253.51 518.267 249.117 523.232 247.176 C 523.921 249.469 522.05 251.007 523.289 252.636 C 524.715 253.311 525.783 252.386 526.283 251.499 C 530.431 244.149 538.478 245.101 544.827 242.16 C 545.255 244.205 543.846 244.877 543.125 245.904 C 537.768 253.535 532.339 261.117 527.077 268.813 C 525.808 270.67 523.565 273.806 524.92 274.94 C 527.606 277.188 525.907 278.959 525.696 281.017 C 525.246 285.403 523.172 289.776 525.603 295.441 C 529.462 283.969 532.985 273.518 540.601 264.958 C 540.842 270.78 539.935 276.58 542.59 283.237 C 544.869 274.209 546.397 266.13 552.299 259.843 C 554.029 261.697 551.3 263.594 553.661 264.94 C 557.19 263.532 557.641 258.218 561.874 257.476 C 563.251 259.93 560.735 261.919 561.797 264.113 C 563.488 264.866 564.42 261.978 566.345 263.118 C 565.343 268.494 561.093 272.717 561.112 279.682 C 567.263 272.323 572.552 265.705 580.553 261.121 C 580.563 265.681 577.002 268.23 578.062 272.246 C 582.683 271.055 584.747 266.001 589.863 265.212 C 588.812 269.897 584.522 272.456 583.937 277.639 C 589.865 275.744 594.39 271.619 600.588 271.088 C 599.375 275.629 595.15 278.665 596.149 284.605 C 601.539 278.999 605.683 273.186 612.83 269.405 C 612.008 275.248 607.141 278.682 608.119 285.104 C 615.149 279.991 621.678 275.298 629.981 274.917 C 630.644 278.411 626.442 278.998 627.182 282.39 C 631.17 282.073 634.76 279.092 639.31 280.276 C 637.315 283.915 632.703 284.619 631.021 289.183 C 640.383 288.578 649.341 286.706 657.981 290.209 C 656.774 293.23 653.1 292.672 652.337 295.762 C 656.818 297.388 661.678 296.483 665.74 298.661 C 665.258 301.038 662.303 300.493 661.914 302.843 C 664.812 306.023 669.705 303.613 672.863 306.49 C 672.405 308.231 669.335 307.79 669.428 310.221 C 674.252 311.87 679.461 311.053 684.327 313.439 C 681.643 316.793 683.306 317.981 686.549 319.032 C 690.433 320.29 694.976 320.147 698.168 323.486 C 696.732 325.001 694.016 323.716 693.557 326.862 C 698.68 328.075 703.456 330.614 708.747 330.981 C 710.283 325.759 707.836 323.224 704.361 320.965 C 701.869 319.345 698.091 317.539 697.685 315.308 C 696.729 310.04 692.634 309.264 689.252 307.229 C 686.754 305.726 683.859 304.809 681.65 302.445 C 683.056 301.061 685.465 302.089 686.031 299.646 C 684.443 295.22 678.641 294.078 676.797 289.657 C 678.449 287.948 680.85 290.4 682.311 287.283 C 674.676 280.155 664.778 276.144 655.306 270.175 Z M 443.513 703.918 C 442.39 703.892 441.148 704.166 440.167 703.779 C 438.1 702.961 435.999 701.965 434.415 704.189 C 432.688 706.614 433.882 708.946 435.385 711.087 C 438.388 715.367 442.047 718.966 446.477 721.761 C 458.62 729.424 472.195 732.344 486.224 733.818 C 512.299 736.557 537.688 733.695 562.347 724.662 C 566.168 723.262 569.414 721.715 565.601 716.783 C 571.801 716.575 575.318 712.84 578.267 708.725 C 579.192 707.435 581.552 705.661 579.915 703.53 C 578.26 701.376 574.662 701.848 573.516 702.535 C 568.678 705.434 563.969 702.27 559.276 702.556 C 556.588 702.721 552.461 700.616 548.937 699.952 C 529.653 696.317 510.304 692.612 490.564 694.619 C 484.616 695.224 478.612 696.284 472.708 698.046 C 468.748 699.228 464.481 701.615 459.962 700.105 C 453.83 698.056 449.452 703.008 443.513 703.918 Z M 490.889 365.57 C 504.479 364.199 518.069 362.991 531.736 364.598 C 536.417 365.149 540.615 363.978 544.232 360.775 C 560.701 346.188 580.63 341.439 601.919 340.644 C 604.9 340.533 607.816 340.33 610.593 338.661 C 608.151 336.761 608.16 336.724 606.2 336.28 C 588.44 332.257 571.027 334.158 554.173 340.343 C 528.009 349.943 501.937 350.655 475.479 341.689 C 456.098 335.121 436.333 334.538 416.421 339.319 C 414.712 339.73 412.884 339.829 411.107 342.467 C 419.599 342.794 427.344 342.82 435.039 343.516 C 452.313 345.079 468.502 349.127 481.871 360.977 C 484.265 363.098 486.854 364.889 490.889 365.57 Z M 773.646 587.843 C 769.712 583.825 765.778 579.806 761.844 575.787 C 761.391 576.168 760.939 576.549 760.487 576.931 C 767.032 588.869 773.577 600.808 780.121 612.747 C 779.767 612.983 779.413 613.219 779.059 613.455 C 770.839 606.515 764.873 597.406 756.849 590.074 C 761.878 602.924 766.907 615.774 771.937 628.625 C 766.784 625.889 764.773 620.639 759.565 617.022 C 770.992 639.171 781.548 660.74 789.213 683.629 C 788.356 661.78 781.348 641.335 775.181 620.626 C 782.628 628.483 787.747 637.836 794.212 646.329 C 793.271 635.785 788.771 626.515 784.964 616.951 C 790.875 620.966 793.315 628.166 799.808 632.551 C 798.425 621.323 791.984 612.995 787.621 602.909 C 793.243 605.122 794.624 611.183 801.078 612.471 C 797.327 601.444 791.618 592.678 785.83 583.756 C 791.094 585.409 794.419 590.26 800.692 591.782 C 799.26 585.413 795.907 581.497 792.854 577.481 C 789.76 573.412 786.413 569.536 783.177 565.576 C 787.497 566.047 789.56 570.028 794 569.602 C 786.926 560.745 777.796 554.173 769.333 546.85 C 770.294 549.957 772.794 552.173 773.386 555.064 C 772.405 556.745 770.989 554.696 770.144 555.974 C 772.999 564.758 780.403 570.978 784.71 580.587 C 776.628 576.132 773.297 568.321 765.932 565.28 C 771.477 576.585 778.48 586.892 785.124 597.466 C 780.177 595.76 777.496 591.66 773.646 587.843 Z M 485.234 560.599 C 498.88 558.968 512.521 560.297 526.153 560.793 C 533.514 561.061 540.718 562.403 546.935 566.878 C 547.996 567.642 549.119 568.492 550.703 567.685 C 552.051 565.383 550.825 563.176 549.961 561.138 C 544.86 549.106 534.58 544.94 522.651 544.5 C 506.346 543.899 490.014 544.204 473.719 545.386 C 464.036 546.088 455.203 552.658 452.92 560.812 C 452.549 562.14 452.155 563.409 453.206 564.566 C 454.348 565.822 455.68 565.296 456.89 564.745 C 465.633 560.76 474.92 560.446 485.234 560.599 Z M 759.823 677.498 C 758.204 666.391 753.094 654.607 747.679 651.839 C 756.629 681.93 757.044 711.076 745.285 739.842 C 755.069 729.557 757.105 716.651 758.764 703.426 C 762.722 710.733 762.515 718.947 764.741 726.55 C 774.848 684.942 767.013 645.768 750.252 607.78 C 749.675 607.889 749.099 607.999 748.523 608.108 C 752.973 622.049 757.424 635.991 761.874 649.933 C 757.115 647.179 756.11 641.75 751.76 638.909 C 750.309 641.23 751.785 642.684 752.613 644.17 C 758.148 654.095 760.547 664.908 761.743 676.066 C 761.862 677.181 762.715 679.087 759.823 677.498 Z M 280.7 261.358 C 281.883 262.088 282.836 263.666 284.747 262.346 C 284.305 259.015 280.345 257.71 279.499 253.966 C 291.23 256.98 298.668 264.525 305.167 274.691 C 306.262 272.038 308.493 272.075 309.876 270.735 C 309.431 267.821 307.381 266.159 305.48 264.713 C 293.775 255.806 281.879 247.366 266.348 246.435 C 253.327 245.654 241.116 247.597 230.254 255.303 C 218.166 263.877 213.812 276.269 213.45 290.372 C 213.249 298.215 213.203 305.957 210.534 313.507 C 208.459 319.38 212.252 323.646 219.144 323.626 C 219.882 321.864 217.019 320.978 217.968 319.192 C 219.311 318.156 221.453 319.126 222.576 317.031 C 221.756 315.821 220.859 314.496 220.067 313.328 C 220.401 311.252 223.467 311.883 223.083 309.262 C 221.62 307.032 218.071 305.797 218.025 302.297 C 219.396 301.316 220.854 303.456 221.778 301.807 C 222.629 299.724 219.683 297.665 221.495 296.08 C 224.269 293.653 222.619 291.313 222.194 288.786 C 221.68 285.727 219.43 282.882 220.391 279.716 C 221.577 275.808 223.687 272.168 223.518 267.899 C 223.48 266.941 224.062 266.074 224.864 266.065 C 230.569 266.001 234.712 263.676 236.931 258.253 C 237.086 257.874 237.696 257.598 238.152 257.436 C 244.295 255.248 250.289 251.979 257.131 254.962 C 258.491 255.555 260.438 256.331 261.404 255.198 C 264.484 251.588 267.508 253.874 270.27 255.151 C 273.727 256.75 276.888 258.99 280.7 261.358 Z M 779.327 477.887 C 780.726 471.353 782.009 465.328 776.265 459.447 C 765.579 448.505 754.921 437.546 743.763 427.084 C 742.682 426.071 741.805 424.271 739.385 425.001 C 739.053 429.906 738.869 434.876 738.337 439.808 C 737.833 444.48 739.424 447.925 742.713 451.316 C 753.256 462.187 762.672 474.032 771.63 486.241 C 772.66 487.644 773.35 489.474 775.535 490.09 C 777.326 486.424 778.162 482.542 779.327 477.887 Z M 745.031 254.035 C 744.575 254.988 743.496 255.924 745.084 257.11 C 755.462 249.471 765.487 240.967 779.404 240.074 C 779.52 243.455 775.95 243.167 775.588 245.453 C 777.675 247.915 780.449 244.656 782.822 246.542 C 780.41 249.17 776.934 249.537 774.123 251.1 C 771.403 252.612 768.457 253.829 766.889 256.968 C 779.651 250.611 792.595 249.633 806.098 255.557 C 805.816 251.305 802.374 249.732 802.84 246.221 C 803.315 242.635 798.79 242.268 797.441 239.48 C 797.457 238.158 799.848 238.301 799.529 236.446 C 799.191 235.339 798.07 234.86 797.082 234.279 C 786.031 227.786 774.325 226.389 761.98 229.713 C 749.12 233.176 738.31 241.032 726.303 246.324 C 724.925 246.931 723.277 247.806 723.355 250.254 C 725.794 250.511 727.544 247.142 729.885 248.591 C 730.964 250.39 728.707 252.022 730.739 254.151 C 740.642 246.525 750.631 238.717 763.326 235.671 C 756.475 240.841 750.484 246.735 745.031 254.035 Z M 273.761 450.236 C 270.987 453.765 268.431 457.496 265.388 460.775 C 260.966 465.539 260.076 470.725 261.978 476.803 C 263.406 481.365 263.439 486.385 266.314 491.131 C 267.489 489.605 268.318 488.781 268.85 487.797 C 275.268 475.916 282.727 464.734 291.005 454.068 C 293.948 450.277 292.874 437.923 289.331 433.269 C 283.445 437.992 279.104 444.1 273.761 450.236 Z M 397.693 287.755 C 394.967 285.852 392.263 283.916 389.507 282.059 C 387.814 280.918 386.32 278.575 383.879 280.282 C 381.607 281.872 382.607 284.037 383.217 286.165 C 383.555 287.34 384.416 288.605 383.659 289.862 C 382.381 290.723 380.499 288.663 379.605 291.053 C 380.225 293.36 383.407 294.132 383.726 297.457 C 377.763 296.619 372.488 298.792 367.044 299.674 C 366.823 302.062 369.725 302.611 369.195 304.921 C 366.568 305.753 364.123 306.964 363.261 310.525 C 367.338 311.468 371.785 313.381 374.802 310.487 C 378.109 307.316 372.825 304.553 372.256 300.781 C 377.835 301.806 383.13 302.804 388.436 303.742 C 390.355 304.081 392.638 305.022 393.947 302.94 C 395.213 300.924 393.335 299.218 392.5 297.482 C 391.257 294.902 389.47 292.53 388.892 288.987 C 394.441 290.969 399.236 292.748 404.082 294.372 C 405.612 294.885 407.42 295.489 408.734 293.935 C 409.911 292.544 408.849 291.09 408.434 289.699 C 407.617 286.962 405.779 284.357 407.253 281 C 411.623 282.745 413.643 287.993 419.86 288.455 C 417.272 280.146 414.941 272.663 412.543 264.963 C 409.339 266.562 410.694 270.246 407.935 271.244 C 405.514 269.328 406.696 265.637 403.568 263.522 C 398.408 271.889 401.803 280.597 401.994 288.792 C 400.293 289.383 399.339 288.558 397.693 287.755 Z M 729.721 683.586 C 729.128 678.23 728.221 672.98 724.985 667.925 C 722.709 670.534 723.393 672.824 723.775 675.038 C 724.832 681.147 725.758 687.817 723.888 693.281 C 722.278 697.99 721.806 702.127 722.435 706.691 C 722.956 710.476 723.545 714.236 723.425 718.076 C 723.389 719.245 723.513 720.471 725.909 720.722 C 730.174 709.024 731.76 696.979 729.721 683.586 Z M 276.503 597.146 C 277.363 588.467 280.372 580.106 280.764 569.929 C 278.617 572.324 276.626 571.588 274.543 571.893 C 273.274 586.677 270.974 601.185 271.903 615.859 C 274.685 610.13 274.979 603.951 276.503 597.146 Z M 210.79 342.719 C 216.497 347.462 222.465 351.492 230.422 350.291 C 224.388 347.014 217.092 345.536 215.857 336.81 C 216.449 335.789 218.707 337.477 219.336 335.557 C 212.055 330.762 208.942 330.448 204.852 336.098 C 206.598 338.074 208.438 340.158 210.79 342.719 Z M 701.971 704.264 C 700.096 710.919 695.359 716.635 694.751 724.162 C 703.759 721.664 711.799 699.946 706.685 693.124 C 704.029 696.154 703.581 700.047 701.971 704.264 Z M 345.377 798.973 C 344.819 798.682 344.261 798.392 343.703 798.102 C 343.504 798.373 343.305 798.644 343.106 798.915 C 352.765 806.597 362.424 814.279 372.838 822.561 C 371.792 819.611 368.641 819.325 369.183 816.132 C 378.933 820.505 386.635 827.715 396.074 832.657 C 395.871 831.894 395.889 831.465 395.707 831.348 C 379.098 820.657 362.475 809.99 345.377 798.973 Z M 302.77 659.426 C 302.266 658.664 302.077 657.431 300.262 658.158 C 298.717 667.781 300.297 677 304.715 685.905 C 306.853 680.531 307.663 675.105 307.781 669.565 C 307.79 669.143 307.441 668.554 307.078 668.309 C 304.129 666.32 303.963 662.985 302.77 659.426 Z M 484.329 602.817 C 485.934 601.287 487.84 599.484 485.896 597.356 C 483.769 595.025 481.999 597.447 480.441 598.718 C 477.474 601.138 474.046 602.042 470.346 602.422 C 468.035 602.66 465.537 602.487 462.849 604.68 C 470.635 607.805 477.328 607.777 484.329 602.817 Z M 317.654 687.011 C 316.473 696.306 318.179 705.06 322.584 713.342 C 323.182 704.139 322.483 695.07 320.094 686.188 C 319.771 684.989 318.539 685.3 317.654 687.011 Z M 247.549 364.507 C 248.051 363.374 250.06 363.28 249.525 360.928 C 243.027 362.44 236.473 363.651 229.771 364.339 C 236.307 368.693 243.1 370.097 250.52 368.003 C 250.247 365.349 247.331 367.163 247.549 364.507 Z M 395.676 766.044 C 397.126 764.617 396.178 763.134 395.451 761.99 C 392.443 757.26 389.28 752.627 386.117 747.998 C 385.565 747.191 384.773 746.472 383.601 747.06 C 382.649 753.615 388.58 763.514 395.676 766.044 Z M 581.108 816.53 C 582.546 814.229 583.555 811.899 581.417 808.6 C 575.717 813.886 571.14 819.347 568.941 826.675 C 574.67 825.603 577.671 821.342 581.108 816.53 Z M 739.684 794.085 C 739.91 792.781 738.782 792.77 738.107 792.7 C 731.227 791.984 724.548 792.752 718.316 795.928 C 716.592 796.807 714.82 797.906 714.974 801.269 C 723.19 798.666 731.039 795.696 739.684 794.085 Z M 329.227 704.112 C 329.952 711.729 332.9 718.443 337.084 725.211 C 339.619 720.74 339.683 720.53 337.824 718.082 C 334.624 713.869 333.803 708.783 332.442 703.885 C 332.142 702.806 331.937 701.42 330.406 701.511 C 329.409 701.57 329.311 702.578 329.227 704.112 Z M 715.135 834.663 C 715.958 837.906 718.157 836.661 719.775 835.814 C 725.135 833.008 730.38 829.981 736.326 826.674 C 727.529 826.218 719.542 829.172 715.135 834.663 Z M 739.065 676.257 C 738.206 672.993 739.604 669.327 737.498 666.186 C 734.909 666.666 732.959 667.723 733.549 670.44 C 734.693 675.712 735.893 681.004 738.6 686.593 C 740.131 682.993 739.126 680.038 739.065 676.257 Z M 779.572 372.256 C 783.425 368.421 789.396 368.673 793.461 365.082 C 787.307 366.208 780.899 366.18 775.338 369.753 C 776.416 371.471 777.633 371.94 779.572 372.256 Z M 813.825 306.36 C 811.828 306.919 809.831 307.479 807.462 308.142 C 812.872 310.836 818.433 309.401 822.578 304.464 C 819.253 302.578 816.493 302.621 813.825 306.36 Z M 272.721 563.141 C 273.898 564.088 275.075 565.035 276.32 566.037 C 278.606 556.805 278.768 555.098 277.623 551.37 C 274.985 554.84 273.555 558.608 272.721 563.141 Z M 646.209 751.972 C 644.623 755.215 641.769 757.972 642.063 763.228 C 646.293 760.139 648.439 756.62 650.356 752.95 C 650.84 752.023 650.458 750.925 649.505 750.367 C 648.197 749.6 647.37 750.567 646.209 751.972 Z M 817.07 325.363 C 815.132 327.107 813.194 328.851 811.132 330.708 C 816.561 332.141 820.038 330.963 823.234 326.781 C 821.686 325.049 819.57 325.57 817.07 325.363 Z M 376.992 599.262 C 379.19 600.147 381.1 600.153 382.553 597.847 C 384.878 594.158 380.676 593.069 380.131 589.872 C 377.409 592.98 374.205 594.973 376.992 599.262 Z M 328.19 784.488 C 326.966 783.466 325.742 782.443 323.908 780.912 C 329.462 792.092 333.082 795.371 336.634 792.506 C 333.963 789.972 331.318 787.461 328.19 784.488 Z M 812.02 317.619 C 815.658 319.547 818.468 318.071 822.05 315.061 C 816.809 314.099 812.594 313.536 808.128 314.66 C 808.906 316.381 810.382 316.54 812.02 317.619 Z M 810.256 288.282 C 811.551 287.387 812.401 286.089 810.311 285.595 C 808.219 285.101 806.092 283.611 803.475 284.976 C 804.06 286.415 804.636 287.835 805.282 289.427 C 806.877 289.092 808.282 288.798 810.256 288.282 Z M 532.353 605.446 C 530.626 604.507 528.9 603.53 526.651 605.516 C 528.846 607.083 530.447 609.776 532.353 605.446 Z M 805.38 275.9 C 805.663 278.437 802.566 278.232 801.663 280.725 C 804.387 279.022 807.183 278.636 809.066 275.942 C 807.702 275.131 806.887 273.468 805.38 275.9 Z M 772.191 522.455 C 773.327 524.042 774.463 525.63 775.599 527.217 C 775.838 527.053 776.076 526.889 776.315 526.726 C 774.422 523.898 772.528 521.071 770.208 517.608 C 769.911 520.087 771.19 520.851 772.191 522.455 Z" style="">
    <title>Bear</title>
  </path>
  <path fill="#000000" opacity="1.000000" stroke="none" d=" M309.074615,454.566895 C307.519104,443.446381 305.662262,432.771057 306.448090,421.898071 C307.847351,402.537628 317.277527,387.207794 330.910095,374.182617 C343.837036,361.831665 360.094757,357.335480 377.333069,355.676697 C395.249756,353.952606 413.197937,352.884399 431.190552,354.615265 C441.997498,355.654877 452.749634,356.983673 462.142151,363.100067 C473.534576,370.518829 483.480682,384.970612 477.229675,406.451630 C465.345551,447.290649 442.942230,480.948822 407.964569,505.648926 C376.877319,527.601746 338.269958,513.228760 321.471741,490.485840 C313.648102,479.893524 311.709442,467.361877 309.074615,454.566895 M461.183441,374.027496 C463.695343,373.837555 463.566101,372.450348 462.235870,371.114075 C460.847107,369.718933 459.205292,368.509186 457.506775,367.500092 C448.703094,362.269592 438.770020,362.112152 428.999115,361.535004 C424.801514,361.287048 420.467682,360.849945 416.258972,362.657104 C431.122040,366.220581 446.176880,368.765747 461.183441,374.027496 z" style="visibility: hidden;">
    <title>GoogleLeft</title>
  </path>
  <path fill="#000000" opacity="1.000000" stroke="none" d=" M595.057495,352.673950 C616.769714,350.249268 638.017578,350.366882 659.185364,353.585480 C690.372070,358.327515 714.906433,380.463776 721.857178,409.823059 C724.639038,421.573425 722.994751,433.343536 721.935364,445.076355 C721.339417,451.677094 720.296509,458.273193 718.937683,464.763062 C713.582214,490.342346 696.406799,504.665955 672.631470,512.211487 C652.408936,518.629456 633.763306,514.413574 616.843445,502.251892 C583.662720,478.402374 561.360474,446.540680 549.019226,407.786102 C541.464661,384.062836 556.109375,365.177307 574.352051,357.834961 C580.881287,355.207092 587.717834,353.854279 595.057495,352.673950 M711.998352,396.469635 C702.430542,374.786072 685.567200,362.001587 662.607361,357.931213 C636.374756,353.280670 609.954651,353.583221 583.718445,358.440979 C575.006775,360.053986 567.494995,364.393799 561.721741,371.299164 C559.964417,373.401123 558.059387,375.585541 558.461365,378.950592 C615.147949,386.239319 667.511414,404.657501 714.736877,437.826019 C715.302063,423.824493 717.965454,410.261627 711.998352,396.469635 z" style="visibility: hidden;">
    <title>GoogleRight</title>
  </path>
  <ellipse style="stroke-width: 42px; paint-order: fill; fill: rgba(216, 216, 216, 0); visibility: hidden;" cx="517.035" cy="514.806" rx="402.258" ry="406.958"/>
  <path d="M 940.293 514.806 C 940.293 631.434 891.825 741.035 816.41 817.332 C 778.626 855.556 731.898 887.684 681.873 909.09 C 631.903 930.473 574.784 942.764 517.035 942.764 C 459.286 942.764 402.167 930.473 352.197 909.09 C 302.172 887.684 255.443 855.556 217.66 817.332 C 142.245 741.035 93.777 631.434 93.777 514.806 C 93.777 398.178 142.245 288.577 217.66 212.281 C 255.443 174.056 302.172 141.928 352.197 120.522 C 402.167 99.139 459.286 86.848 517.035 86.848 C 574.784 86.848 631.903 99.139 681.873 120.522 C 731.898 141.928 778.627 174.056 816.41 212.281 C 891.825 288.577 940.293 398.178 940.293 514.806 Z M 665.35 159.135 C 619.07 139.332 570.366 128.848 517.035 128.848 C 463.704 128.848 415 139.332 368.719 159.135 C 322.493 178.916 282.542 206.386 247.531 241.806 C 244.795 244.574 242.103 247.376 239.456 250.212 C 236.295 251.52 233.224 253.196 230.254 255.303 C 221.403 261.581 216.699 269.906 214.672 279.45 C 164.569 344.718 135.777 424.827 135.777 514.806 C 135.777 622.935 177.357 716.812 247.531 787.806 C 282.542 823.226 322.493 850.696 368.719 870.477 C 415 890.28 463.704 900.764 517.035 900.764 C 570.366 900.764 619.07 890.28 665.35 870.477 C 711.577 850.696 751.528 823.226 786.539 787.806 C 856.713 716.812 898.293 622.935 898.293 514.806 C 898.293 418.584 865.366 333.648 808.664 266.08 C 809.767 265.5 810.505 264.544 810.381 262.836 C 810.185 260.143 807.639 259.951 805.554 259.398 C 804.487 259.115 803.425 258.885 802.358 258.749 C 800.514 256.656 798.646 254.581 796.755 252.523 C 799.842 253.173 802.955 254.178 806.098 255.557 C 805.816 251.305 802.374 249.732 802.84 246.221 C 803.315 242.635 798.79 242.268 797.441 239.48 C 797.457 238.158 799.848 238.301 799.529 236.446 C 799.191 235.339 798.07 234.86 797.082 234.279 C 789.138 229.612 780.856 227.578 772.242 228.037 C 740.743 199.185 705.402 176.274 665.35 159.135 Z M 223.518 267.899 C 223.48 266.941 224.062 266.074 224.864 266.065 C 225.055 266.063 225.244 266.058 225.431 266.051 C 224.793 266.81 224.159 267.572 223.527 268.336 C 223.527 268.191 223.524 268.045 223.518 267.899 Z" style=""/>
  <path d="M 904.303 509.618 C 904.303 298.219 732.931 126.847 521.533 126.847 C 310.134 126.847 138.762 298.219 138.762 509.618 C 138.762 721.016 310.134 892.388 521.533 892.388 C 732.931 892.388 904.303 721.016 904.303 509.618 Z" style="stroke: rgb(0, 0, 0); fill: rgba(255, 255, 255, 0.52); visibility: hidden;"/>
</svg>